# xmcd
#
# Track frame offsets: 
#        300
#        12383
#        26121
#        37014
#        49113
#        61955
#        75140
#        89338
#        100681
#        114004
#        125315
#        137178
#        149623
#        161094
#        173235
#        184209
#        195020
#        209422
#        222072
#        235365
#        248315
#        260561
#        272044
#        283913
#        296865
#        315513
#
# Disc length: 4382 seconds
#
# Revision: 1
# Processed by: cddbd v1.5.2PL0 Copyright (c) Steve Scherf et al.
# Submitted via: ExactAudioCopy v1.0b1
#
DISCID=78111a1a
DTITLE=T-Bone Walker - The Talkin' Guitar
DYEAR=1990
DGENRE=Blues
TTITLE0=Bobby sox blues
TTITLE1=call it stormy monday
TTITLE2=lonesome women blues
TTITLE3=too much trouble blues
TTITLE4=hypin' women blues
TTITLE5=vacation blues
TTITLE6=so blue blues
TTITLE7=strollin' with bones
TTITLE8=you don't love me
TTITLE9=travelin' blues
TTITLE10=evil hearted woman
TTITLE11=glamour girl
TTITLE12=the hustle
TTITLE13=alimony blues
TTITLE14=say! pretty baby
TTITLE15=i'm about to lose my mind
TTITLE16=cold cold feeling
TTITLE17=blues is a woman
TTITLE18=i got the blues
TTITLE19=blue mood
TTITLE20=railroad station blues
TTITLE21=play on little girl
TTITLE22=t-bone blues special
TTITLE23=two bones and a pick
TTITLE24=mean old world
TTITLE25=bonus track
EXTD=
EXTT0=
EXTT1=
EXTT2=
EXTT3=
EXTT4=
EXTT5=
EXTT6=
EXTT7=
EXTT8=
EXTT9=
EXTT10=
EXTT11=
EXTT12=
EXTT13=
EXTT14=
EXTT15=
EXTT16=
EXTT17=
EXTT18=
EXTT19=
EXTT20=
EXTT21=
EXTT22=
EXTT23=
EXTT24=
EXTT25=
PLAYORDER=
